<?xml version="1.0" encoding="UTF-8" standalone="no"?>
<svg width="304px" height="305px" viewBox="0 0 304 305" version="1.1" xmlns="http://www.w3.org/2000/svg" xmlns:xlink="http://www.w3.org/1999/xlink">
    <!-- Generator: Sketch 3.8.3 (29802) - http://www.bohemiancoding.com/sketch -->
    <title>Square Image</title>
    <desc>Created with Sketch.</desc>
    <defs></defs>
    <g id="Page-1" stroke="none" stroke-width="1" fill="none" fill-rule="evenodd">
        <g id="Desktop-Landscape" transform="translate(-151.000000, -1713.000000)">
            <g id="portfolio" transform="translate(151.000000, 1597.000000)">
                <g id="Square-Image" transform="translate(0.000000, 116.000000)">
                    <path d="M298.803747,304.712925 L5.19241548,304.712925 C2.32564951,304.712925 0,302.387275 0,299.52051 L0,5.90917819 C0,3.03857451 2.32564951,0.712925 5.19241548,0.712925 L297.32623,0.712925 C301.010427,0.712925 304,3.70249755 304,7.38669479 L304,299.52051 C304,302.387275 301.67435,304.712925 298.803747,304.712925" id="Fill-1075" fill="#D3D7DD"></path>
                    <path d="M248.025078,203.63788 L185.914703,126.469055 C182.184478,121.83493 175.123578,121.844755 171.406453,126.49198 L140.287403,165.382605 C137.104103,169.36173 131.310628,170.039655 127.295478,166.902205 L114.709653,157.070655 C111.054753,154.214855 105.854053,154.48668 102.520103,157.70928 L55.8579033,202.783105 C49.8417283,208.592955 53.9551283,218.77493 62.3227533,218.77493 L240.777503,218.77493 C248.591653,218.77493 252.924478,209.726105 248.025078,203.63788" id="Fill-1076" fill="#898989"></path>
                    <path d="M53,122.825825 C53,132.670475 60.981175,140.648375 70.825825,140.648375 C80.670475,140.648375 88.648375,132.670475 88.648375,122.825825 C88.648375,112.981175 80.670475,105 70.825825,105 C60.981175,105 53,112.981175 53,122.825825" id="Fill-1077" fill="#898989"></path>
                </g>
            </g>
        </g>
    </g>
</svg>